<?xml version="1.0" encoding="utf-8"?>
<!-- Generator: Adobe Illustrator 16.0.0, SVG Export Plug-In . SVG Version: 6.00 Build 0)  -->
<!DOCTYPE svg PUBLIC "-//W3C//DTD SVG 1.1//EN" "http://www.w3.org/Graphics/SVG/1.1/DTD/svg11.dtd">
<svg version="1.1" id="Capa_1" xmlns="http://www.w3.org/2000/svg" xmlns:xlink="http://www.w3.org/1999/xlink" x="0px" y="0px"
	 width="46px" height="44px" viewBox="0 0 46 44" enable-background="new 0 0 46 44" xml:space="preserve">
<g>
	<g>
		<g>
			<path fill="#F59F2E" d="M24.367,20.108l2.946-10.144l-2.122,0.024l-2.772,9.549c-0.505,0.175-0.908,0.58-1.071,1.129
				c-0.267,0.914,0.258,1.869,1.17,2.137c0.909,0.267,1.869-0.255,2.138-1.161C24.815,21.094,24.691,20.528,24.367,20.108z"/>
		</g>
	</g>
	<g>
		<g>
			<g>
				<path fill="#F59F2E" d="M36.303,24.646c0.325-0.49,0.603-0.917,0.818-1.259c0.352-0.549,0.25-0.968-0.42-1.169
					c-0.671-0.203-10.994-3.327-10.994-3.327l-0.319,1.038c0.231,0.459,0.307,0.979,0.241,1.49L36.303,24.646z"/>
			</g>
			<g>
				<path fill="#F59F2E" d="M20.723,19.934c0.227-0.458,0.581-0.845,1.024-1.102l0.313-1.042c0,0-10.429-3.153-10.957-3.314
					c-0.528-0.16-1.007,0.033-1.013,0.612c-0.004,0.425-0.001,0.983,0.009,1.633L20.723,19.934z"/>
			</g>
		</g>
	</g>
	<g>
		<path fill="#F59F2E" d="M25.376,22.257c-0.562,1.106-1.85,1.692-3.076,1.314c-1.227-0.371-1.973-1.568-1.822-2.799l-10.363-3.135
			c0.115,4.994,0.718,13.72,3.511,14.559c2.747,0.831,6.259,1.902,10.834,3.282c3.244,0.98,8.53-5.962,11.332-10.071L25.376,22.257z
			 M12.7,25.227c-0.615-0.188-0.959-0.833-0.77-1.449c0.183-0.615,0.829-0.963,1.442-0.77c0.618,0.182,0.966,0.832,0.776,1.446
			C13.966,25.068,13.317,25.413,12.7,25.227z M13.987,29.006c-0.616-0.183-0.963-0.834-0.777-1.447
			c0.187-0.617,0.835-0.967,1.45-0.779c0.613,0.188,0.961,0.834,0.778,1.447C15.249,28.847,14.601,29.19,13.987,29.006z
			 M16.845,26.481c-0.613-0.188-0.955-0.835-0.773-1.447c0.187-0.617,0.833-0.964,1.451-0.776c0.614,0.185,0.964,0.834,0.777,1.447
			C18.112,26.316,17.466,26.666,16.845,26.481z M18.137,30.26c-0.616-0.183-0.967-0.836-0.78-1.447
			c0.184-0.616,0.835-0.965,1.448-0.775c0.618,0.186,0.961,0.833,0.778,1.441C19.395,30.096,18.749,30.446,18.137,30.26z
			 M20.999,27.737c-0.617-0.19-0.963-0.838-0.772-1.455c0.181-0.608,0.829-0.957,1.449-0.772c0.612,0.185,0.958,0.839,0.772,1.447
			C22.264,27.571,21.61,27.918,20.999,27.737z M22.292,31.513c-0.62-0.182-0.968-0.826-0.784-1.446
			c0.187-0.614,0.836-0.961,1.45-0.776c0.617,0.188,0.958,0.833,0.775,1.445C23.542,31.352,22.898,31.705,22.292,31.513z
			 M25.146,28.99c-0.614-0.188-0.964-0.837-0.776-1.453c0.188-0.609,0.834-0.956,1.446-0.771c0.622,0.188,0.964,0.836,0.777,1.448
			C26.409,28.829,25.765,29.179,25.146,28.99z M26.438,32.775c-0.62-0.191-0.968-0.842-0.783-1.454
			c0.184-0.614,0.835-0.963,1.446-0.774c0.622,0.186,0.969,0.834,0.78,1.447C27.693,32.606,27.048,32.958,26.438,32.775z
			 M29.294,30.246c-0.618-0.188-0.957-0.837-0.767-1.453c0.179-0.614,0.827-0.956,1.444-0.771c0.608,0.184,0.963,0.835,0.776,1.448
			C30.551,30.08,29.908,30.427,29.294,30.246z"/>
	</g>
</g>
<circle fill="none" stroke="#F59F2E" stroke-miterlimit="10" cx="22.966" cy="22.075" r="19.117"/>
</svg>
