<?xml version="1.0" encoding="utf-8"?>
<!-- Generator: Adobe Illustrator 16.0.0, SVG Export Plug-In . SVG Version: 6.00 Build 0)  -->
<!DOCTYPE svg PUBLIC "-//W3C//DTD SVG 1.1//EN" "http://www.w3.org/Graphics/SVG/1.1/DTD/svg11.dtd">
<svg version="1.1" id="Capa_1" xmlns="http://www.w3.org/2000/svg" xmlns:xlink="http://www.w3.org/1999/xlink" x="0px" y="0px"
	 width="24px" height="24px" viewBox="0 0 24 24" enable-background="new 0 0 24 24" xml:space="preserve">
<path fill="#FFFFFF" d="M12.275,0.786c3.109,0,5.764,1.103,7.949,3.309c2.208,2.185,3.311,4.841,3.311,7.948
	c0,3.106-1.103,5.765-3.311,7.972c-2.186,2.183-4.84,3.285-7.949,3.285c-3.105,0-5.764-1.103-7.97-3.285
	c-2.183-2.207-3.287-4.865-3.287-7.972c0-3.107,1.104-5.764,3.287-7.948C6.512,1.889,9.17,0.786,12.275,0.786z M19.121,9.566
	c0.586-0.405,1.125-0.946,1.597-1.645c-0.629,0.25-1.238,0.429-1.842,0.495c0.674-0.38,1.125-0.968,1.37-1.777
	c-0.652,0.382-1.304,0.629-2.001,0.787c-0.63-0.674-1.397-1.013-2.321-1.013c-0.877,0-1.643,0.315-2.251,0.947
	c-0.609,0.606-0.924,1.371-0.924,2.251c0,0.27,0.022,0.517,0.069,0.743c-2.68-0.136-4.887-1.262-6.622-3.379
	c-0.267,0.519-0.403,1.06-0.403,1.623c0,1.148,0.473,2.048,1.395,2.656c-0.473,0-0.944-0.136-1.417-0.381v0.022
	c0,1.529,1.08,2.859,2.543,3.151c-0.226,0.067-0.495,0.111-0.835,0.111c-0.157,0-0.359-0.021-0.606-0.065
	c0.383,1.283,1.599,2.115,2.972,2.182c-1.237,0.97-2.544,1.441-3.964,1.441c-0.179,0-0.425-0.022-0.74-0.044
	c1.441,0.945,3.062,1.419,4.884,1.419c2.816,0,5.313-1.193,6.78-2.973c1.462-1.78,2.316-3.985,2.316-6.125V9.566z"/>
</svg>
