<?xml version="1.0" encoding="utf-8"?>
<!-- Generator: Adobe Illustrator 16.0.0, SVG Export Plug-In . SVG Version: 6.00 Build 0)  -->
<!DOCTYPE svg PUBLIC "-//W3C//DTD SVG 1.1//EN" "http://www.w3.org/Graphics/SVG/1.1/DTD/svg11.dtd">
<svg version="1.1" id="Capa_1" xmlns="http://www.w3.org/2000/svg" xmlns:xlink="http://www.w3.org/1999/xlink" x="0px" y="0px"
	 width="24px" height="24px" viewBox="0 0 24 24" enable-background="new 0 0 24 24" xml:space="preserve">
<path fill="#FFFFFF" d="M20.191,4.127c2.198,2.197,3.298,4.843,3.298,7.916c0,3.092-1.1,5.739-3.298,7.938
	c-2.176,2.172-4.82,3.271-7.915,3.271c-3.094,0-5.741-1.1-7.938-3.271c-2.174-2.199-3.273-4.846-3.273-7.938
	c0-3.095,1.099-5.741,3.273-7.916c2.197-2.197,4.844-3.295,7.938-3.295C15.349,0.832,17.993,1.93,20.191,4.127z M13.218,10.204
	V8.186c0-0.875,0.18-1.278,1.145-1.278h1.524l0.136-2.646c-0.518-0.112-1.235-0.157-2.132-0.157c-2.601,0-3.945,1.524-3.945,3.521
	v2.556H8.061v2.803h1.885v6.997h3.272v-6.997h2.625l0.18-2.78H13.218z"/>
</svg>
